<svg xmlns="http://www.w3.org/2000/svg" viewBox="259 2121 24 24">
  <defs>
    <style>
      .cls-1 {
        fill: #ff761a;
      }
    </style>
  </defs>
  <g id="全部" transform="translate(194.66 2057.188)">
    <path id="Path_23" data-name="Path 23" d="M313.868,312.269h4.009v4.009h-4.009Z" transform="translate(-242.839 -241.797)"/>
    <path id="Path_24" data-name="Path 24" d="M313.884,560.405h4.009v4.009h-4.009Z" transform="translate(-242.855 -483.281)"/>
    <path id="Path_25" data-name="Path 25" d="M563.095,312.269H567.1v4.009h-4.009Z" transform="translate(-485.386 -241.797)"/>
    <path id="Path_26" data-name="Path 26" class="cls-1" d="M563.095,312.269H567.1v4.009h-4.009Z" transform="translate(-485.386 -241.797)"/>
    <path id="Path_27" data-name="Path 27" class="cls-1" d="M313.868,312.269h4.009v4.009h-4.009Z" transform="translate(-242.839 -241.797)"/>
    <path id="Path_28" data-name="Path 28" class="cls-1" d="M313.884,560.405h4.009v4.009h-4.009Z" transform="translate(-242.855 -483.281)"/>
    <path id="Path_29" data-name="Path 29" class="cls-1" d="M76.34,63.812a12,12,0,1,0,12,12A12,12,0,0,0,76.34,63.812Zm-6.028,6.333a.331.331,0,0,1,.331-.331h4.671a.331.331,0,0,1,.331.331v4.671a.331.331,0,0,1-.331.331H70.643a.331.331,0,0,1-.331-.331V70.145Zm5.333,11.322a.331.331,0,0,1-.331.331H70.643a.331.331,0,0,1-.331-.331V76.8a.331.331,0,0,1,.331-.331h4.671a.331.331,0,0,1,.331.331Zm1.348-11.322a.331.331,0,0,1,.331-.331h4.671a.331.331,0,0,1,.331.331v4.671a.331.331,0,0,1-.331.331H77.324a.331.331,0,0,1-.331-.331Zm5.333,11.323A.331.331,0,0,1,82,81.8H77.324a.331.331,0,0,1-.331-.331V76.8a.331.331,0,0,1,.331-.331H82a.331.331,0,0,1,.331.331Z"/>
  </g>
</svg>
