<svg xmlns="http://www.w3.org/2000/svg" viewBox="2433.999 8158.999 16 16">
  <defs>
    <style>
      .cls-1 {
        fill: #ff761a;
      }
    </style>
  </defs>
  <path id="Path_208" data-name="Path 208" class="cls-1" d="M-2202-6735.144V-6741h-5.858a1.079,1.079,0,0,1-1.144-1,1.079,1.079,0,0,1,1.144-1H-2202v-5.858a1.079,1.079,0,0,1,1-1.144,1.081,1.081,0,0,1,1,1.144V-6743h5.856a1.079,1.079,0,0,1,1.142,1,1.079,1.079,0,0,1-1.142,1H-2200v5.856a1.079,1.079,0,0,1-1,1.143A1.078,1.078,0,0,1-2202-6735.144Z" transform="translate(4643 14908.999)"/>
</svg>
