<svg xmlns="http://www.w3.org/2000/svg" viewBox="4496 12529 20 20">
  <defs>
    <style>
      .cls-1 {
        fill: #9a9a9a;
      }
    </style>
  </defs>
  <path id="Path_200" data-name="Path 200" class="cls-1" d="M-210.429-6731.429v-7.143h-7.143A1.429,1.429,0,0,1-219-6740a1.429,1.429,0,0,1,1.429-1.428h7.143v-7.143A1.429,1.429,0,0,1-209-6750a1.429,1.429,0,0,1,1.429,1.429v7.143h7.142A1.429,1.429,0,0,1-199-6740a1.429,1.429,0,0,1-1.429,1.429h-7.142v7.143A1.429,1.429,0,0,1-209-6730,1.428,1.428,0,0,1-210.429-6731.429Z" transform="translate(4715 19279)"/>
</svg>
