<svg xmlns="http://www.w3.org/2000/svg" viewBox="5904 4566 29.996 30">
  <defs>
    <style>
      .cls-1 {
        fill: #ff761a;
      }
    </style>
  </defs>
  <path id="添加" class="cls-1" d="M126.011,143.622a15,15,0,1,1,15-15A15,15,0,0,1,126.011,143.622Zm0-28.125a13.125,13.125,0,1,0,13.123,13.125A13.124,13.124,0,0,0,126.011,115.5Zm5.624,14.063h-4.687v4.687a.937.937,0,0,1-1.875,0v-4.687h-4.687a.937.937,0,0,1,0-1.875h4.687V123a.937.937,0,0,1,1.875,0v4.688h4.687a.937.937,0,0,1,0,1.875Z" transform="translate(5792.987 4452.378)"/>
</svg>
