<svg xmlns="http://www.w3.org/2000/svg" viewBox="-7475 3492 19.179 16">
  <defs>
    <style>
      .cls-1 {
        fill: #fff;
      }
    </style>
  </defs>
  <path id="协议" class="cls-1" d="M19.028,89.934a1.923,1.923,0,0,0-1.839-1.14c-1.09-.01-2.177,0-3.268,0H8.383c.3-.262.557-.494.825-.713a1.742,1.742,0,0,0-.5-3.029,2,2,0,0,0-2.237.391q-1.83,1.6-3.643,3.205a.548.548,0,0,1-.391.152c-.746-.007-1.491,0-2.237-.007-.136,0-.2.023-.2.182q0,5.325,0,10.663c0,.132.033.169.169.169.776,0,1.554,0,2.33,0a.789.789,0,0,1,.381.09c.554.3,1.107.6,1.664.895a.647.647,0,0,0,.325.08h5.886a2.455,2.455,0,0,0,.623-.086,1.644,1.644,0,0,0,1.346-1.793,1.71,1.71,0,0,0-.348-.895,2,2,0,0,0,1.472-1.23,1.66,1.66,0,0,0-.444-1.82,1.776,1.776,0,0,0,.653-2.579h3.043a2.233,2.233,0,0,0,.676-.089A1.79,1.79,0,0,0,19.028,89.934ZM2.417,98.794c0,.159-.04.2-.2.2-.411-.01-.829-.007-1.243,0-.119,0-.146-.03-.146-.149q0-4.559,0-9.115c0-.123.03-.159.156-.156q.631.01,1.263,0c.136,0,.166.036.166.169q0,2.267,0,4.531C2.413,95.774,2.407,97.286,2.417,98.794Zm15.939-8.233a1.118,1.118,0,0,1-.9.895,2.073,2.073,0,0,1-.378.03c-1.5,0-3.009,0-4.511,0-.159,0-.222.04-.2.2a.574.574,0,0,1,0,.076,1.413,1.413,0,0,0,.01.474c.06.152.278.076.418.143a1.6,1.6,0,0,1,.437.269.933.933,0,0,1-.216,1.528,1.5,1.5,0,0,1-.868.166c-.146-.007-.219.027-.189.186a.915.915,0,0,1,0,.1,1.5,1.5,0,0,0,.01.474c.063.166.275.07.414.136a1.58,1.58,0,0,1,.477.312.972.972,0,0,1-.583,1.621,6.259,6.259,0,0,1-1.028.04c-.152.006-.348-.066-.438.026s-.02.292-.03.441v.02c0,.3,0,.292.282.365a1.187,1.187,0,0,1,.636.365.842.842,0,0,1,.216.878,1.1,1.1,0,0,1-.858.729,1.916,1.916,0,0,1-.341.033q-2.819,0-5.638,0a.585.585,0,0,1-.3-.08c-.474-.285-.948-.57-1.425-.849a.237.237,0,0,1-.143-.235q0-4.748,0-9.5a.292.292,0,0,1,.1-.249c1.23-1.077,2.459-2.164,3.686-3.245A1.3,1.3,0,0,1,8.4,85.662a.925.925,0,0,1,.3,1.624c-.7.626-1.4,1.243-2.1,1.863-.1.09-.2.176-.335.3H17.093a1.442,1.442,0,0,1,.563.1A1,1,0,0,1,18.356,90.561Z" transform="translate(-7475.007 3407.135)"/>
</svg>
