<svg xmlns="http://www.w3.org/2000/svg" viewBox="5954 4566 30 30">
  <defs>
    <style>
      .cls-1 {
        fill: #ff761a;
      }
    </style>
  </defs>
  <path id="Union_46" data-name="Union 46" class="cls-1" d="M-219-5520a15.018,15.018,0,0,1,15-15,15.016,15.016,0,0,1,15,15,15.017,15.017,0,0,1-15,15A15.018,15.018,0,0,1-219-5520Zm2,0a13.015,13.015,0,0,0,13,13,13.014,13.014,0,0,0,13-13,13.014,13.014,0,0,0-13-13A13.015,13.015,0,0,0-217-5520Zm5.831,7.1a.776.776,0,0,1-.083-.611,5.854,5.854,0,0,1,.157-.671q.125-.439.265-.91t.272-.868a3.628,3.628,0,0,1,.215-.546,2.747,2.747,0,0,1,.224-.422,2.87,2.87,0,0,1,.356-.422c.067-.066.221-.222.463-.471s.546-.554.91-.918l1.209-1.207,1.339-1.34,3.556-3.556,3.1,3.109-3.556,3.557-1.324,1.339c-.44.431-.839.825-1.19,1.182s-.646.656-.879.888-.37.364-.414.4c-.111.1-.236.2-.379.315a2.03,2.03,0,0,1-.447.264,6.507,6.507,0,0,1-.679.282c-.3.111-.61.218-.935.324s-.635.2-.925.272-.51.126-.653.15a1.628,1.628,0,0,1-.175.01A.512.512,0,0,1-211.168-5512.9Zm10.125-13.168c.133-.121.289-.267.471-.439s.333-.3.454-.406a1.5,1.5,0,0,1,.479-.257,1.537,1.537,0,0,1,.489-.067,1.879,1.879,0,0,1,.463.075,2.2,2.2,0,0,1,.389.15,3.019,3.019,0,0,1,.77.636,3.657,3.657,0,0,1,.654.952,1.6,1.6,0,0,1,.107.347,1.93,1.93,0,0,1,.04.414,1.207,1.207,0,0,1-.082.431,1.34,1.34,0,0,1-.265.415c-.133.133-.25.248-.356.347s-.2.188-.272.264-.172.167-.249.233Z" transform="translate(6173 10101)"/>
</svg>
