<svg xmlns="http://www.w3.org/2000/svg" viewBox="6004 4566 30 30">
  <defs>
    <style>
      .cls-1 {
        fill: #ff1a1a;
      }
    </style>
  </defs>
  <path id="Union_47" data-name="Union 47" class="cls-1" d="M-219-5520a15.018,15.018,0,0,1,15-15,15.016,15.016,0,0,1,15,15,15.017,15.017,0,0,1-15,15A15.018,15.018,0,0,1-219-5520Zm2,0a13.015,13.015,0,0,0,13,13,13.014,13.014,0,0,0,13-13,13.014,13.014,0,0,0-13-13A13.015,13.015,0,0,0-217-5520Zm9.032,9a1.259,1.259,0,0,1-1.227-1.121l-.921-10.132a1.011,1.011,0,0,1,1.022-1.121h10.686a1.012,1.012,0,0,1,1.024,1.121l-.921,10.132a1.259,1.259,0,0,1-1.227,1.121Zm6.468-2.25h1.688l.563-7.874h-2.25Zm-3.374,0h2.25v-7.874h-2.25Zm-2.812,0H-206v-7.874h-2.249ZM-210.5-5524.5v-.562a1.687,1.687,0,0,1,1.688-1.687h1.654l.2-1.414A1,1,0,0,1-206-5529h4.5a1,1,0,0,1,.96.836l.2,1.414h1.654a1.687,1.687,0,0,1,1.688,1.687v.563Zm9.021-2.249-.158-1.125h-4.228l-.158,1.125Z" transform="translate(6223 10101)"/>
</svg>
