<svg xmlns="http://www.w3.org/2000/svg" viewBox="-7474.999 3539.999 20.436 16">
  <defs>
    <style>
      .cls-1 {
        fill: #fff;
      }
    </style>
  </defs>
  <path id="Path_269" data-name="Path 269" class="cls-1" d="M9752.864-3568.637a.644.644,0,0,1,.644-.644.645.645,0,0,1,.646.644.645.645,0,0,1-.646.644A.644.644,0,0,1,9752.864-3568.637Zm-2.6,0a.645.645,0,0,1,.646-.644.645.645,0,0,1,.644.644.645.645,0,0,1-.644.644A.645.645,0,0,1,9750.267-3568.637Zm-12.624.568a1.56,1.56,0,0,1-1.555-1.554v-10.71a1.561,1.561,0,0,1,1.555-1.554h15.033a1.562,1.562,0,0,1,1.554,1.554V-3574a.592.592,0,0,1-.587.588.591.591,0,0,1-.588-.588v-6.049l-6.9,6.9a1.472,1.472,0,0,1-1.079.455,1.548,1.548,0,0,1-1.1-.455l-6.673-6.671v10.2a.374.374,0,0,0,.359.362h10.732a.589.589,0,0,1,.585.587.623.623,0,0,1-.6.6Zm7.165-5.914a.38.38,0,0,0,.512,0l6.71-6.71H9738.1Zm-10.541,3.716a.61.61,0,0,1-.473-.607v-9.667a3.452,3.452,0,0,1,3.449-3.452h13.99a.613.613,0,0,1,.607.475.581.581,0,0,1-.588.7h-14.01a2.285,2.285,0,0,0-2.276,2.277v9.687a.582.582,0,0,1-.578.6A.631.631,0,0,1,9734.267-3570.268Zm18.673-1.023a.643.643,0,0,1,.645-.644.643.643,0,0,1,.644.644.645.645,0,0,1-.644.644A.645.645,0,0,1,9752.939-3571.291Z" transform="translate(-17208.793 7123.993)"/>
</svg>
