<svg xmlns="http://www.w3.org/2000/svg" viewBox="-7475 3294.001 19.316 16">
  <defs>
    <style>
      .cls-1 {
        fill: #fff;
      }
    </style>
  </defs>
  <g id="后台-会员管理" transform="translate(-7481.436 3200.56)">
    <path id="Path_262" data-name="Path 262" class="cls-1" d="M9583.094-3174.559a.612.612,0,0,1-.437-.183l-9.047-9.248a.609.609,0,0,1-.048-.8l4.21-5.527a.6.6,0,0,1,.485-.245h9.674a.608.608,0,0,1,.485.243l4.211,5.529a.608.608,0,0,1-.049.8l-9.049,9.248a.593.593,0,0,1-.429.185Zm-8.241-9.909,8.241,8.423,8.241-8.423-3.707-4.87h-9.068Zm7.721,4.987-3.366-5.4a.612.612,0,0,1,.2-.842.61.61,0,0,1,.841.195l2.847,4.575,2.847-4.575a.609.609,0,0,1,.84-.195.613.613,0,0,1,.2.842l-3.366,5.4a.61.61,0,0,1-.519.289A.614.614,0,0,1,9582.573-3179.481Z" transform="translate(-9567 3284)"/>
  </g>
</svg>
