<svg xmlns="http://www.w3.org/2000/svg" viewBox="4239 4464 17.745 16">
  <defs>
    <style>
      .cls-1 {
        fill: #fff;
      }
    </style>
  </defs>
  <g id="主页餐厅" transform="translate(4236.865 4412.8)">
    <path id="Path_140" data-name="Path 140" class="cls-1" d="M-418.013-4474.8v-7.469a3.011,3.011,0,0,1-.808-1.427,8.141,8.141,0,0,1,1.211-4.619.891.891,0,0,1-.4-.744v-.853a.89.89,0,0,1,.888-.889h14.185a.89.89,0,0,1,.889.889v.853a.886.886,0,0,1-.279.646,6.5,6.5,0,0,1,1.085,5.063l-.026.083c-.53,1.265-1.207,1.907-2.013,1.907-.936,0-1.752-.9-2.361-1.872-.625,1.244-1.324,1.851-2.128,1.851-1.007,0-1.765-.991-2.205-1.768-.608,1.2-1.266,1.786-2,1.786s-1.429-.614-2.03-1.787c-.77,1.389-1.631,1.709-2.263,1.709a2.068,2.068,0,0,1-.853-.191v5.943h14.26v-5.334h.889v6.222Zm12.714-9.62c.7,1.36,1.455,2.171,2.015,2.171.4,0,.813-.468,1.177-1.32a5.546,5.546,0,0,0-1.166-4.6h-13.393c-.386.65-1.524,2.735-1.279,4.324a2.115,2.115,0,0,0,1.673,1.517c.682,0,1.324-.709,1.86-2.052l.408-1.022.438,1.073c.6,1.534,1.217,2.079,1.587,2.079.22,0,.813-.207,1.573-2.12l.444-1.118.389,1.139c.2.592,1.035,2.082,1.8,2.082.534,0,1.125-.75,1.666-2.111l.36-.907Zm2.36-4.639v-.853h-14.185v.853h.209s12.474-.019,13.849,0Z" transform="translate(421 4542)"/>
  </g>
</svg>
