<svg xmlns="http://www.w3.org/2000/svg" viewBox="226 7485 14.051 16">
  <defs>
    <style>
      .cls-1 {
        fill: #fff;
      }
    </style>
  </defs>
  <g id="采购单" transform="translate(123.6 7441.33)">
    <path id="Path_196" data-name="Path 196" class="cls-1" d="M-141.241-6828.33a2.32,2.32,0,0,1-2.358-2.358v-10.359a2.32,2.32,0,0,1,2.358-2.358h.924v.922h-.924a1.4,1.4,0,0,0-1.436,1.436v10.359a1.4,1.4,0,0,0,1.436,1.436h9.334a1.4,1.4,0,0,0,1.436-1.436v-10.359a1.4,1.4,0,0,0-1.436-1.436h-.821v-.922h.821a2.32,2.32,0,0,1,2.358,2.358v10.359a2.32,2.32,0,0,1-2.358,2.358Zm.821-4.308v-.922h2.872v.922Zm4.409-1.744.617-.615.819.821,1.745-1.643.615.718-2.36,2.154Zm-4.409-1.025v-.922h2.872v.922Zm4.409-2.666.617-.718.819.821,1.745-1.539.615.718-2.36,2.154Zm-4.409-.207v-.922h2.872v.922Zm1.948-2.255a1.4,1.4,0,0,1-1.434-1.436v-.924a1.4,1.4,0,0,1,1.434-1.436h3.8a1.4,1.4,0,0,1,1.436,1.436v.924a1.467,1.467,0,0,1-1.436,1.436Zm-.512-2.36v.924a.468.468,0,0,0,.411.512h3.794a.469.469,0,0,0,.411-.512v-.924a.469.469,0,0,0-.411-.512h-3.794A.468.468,0,0,0-138.984-6842.894Z" transform="translate(246 6888)"/>
  </g>
</svg>
