<svg xmlns="http://www.w3.org/2000/svg" viewBox="224 7635 17.468 16">
  <defs>
    <style>
      .cls-1 {
        fill: #fff;
      }
    </style>
  </defs>
  <path id="库存管理" class="cls-1" d="M16.94,57.786a1.24,1.24,0,1,1-2.48,0v-.169H10.6v.169a1.241,1.241,0,1,1-2.481,0v-.169H7.586V54.808a1.418,1.418,0,0,1,1.031-1.37l.353-1.547a1.244,1.244,0,0,1,1.266-.985h4.582a1.271,1.271,0,0,1,1.3.971l.338,1.568a1.435,1.435,0,0,1,1.015,1.363v2.809H16.94v.169Zm-1.762,0a.522.522,0,1,0,1.043,0v-.17H15.178v.17Zm-6.345,0a.522.522,0,0,0,1.044,0v-.17H8.833v.17Zm6.584-5.74a.556.556,0,0,0-.6-.42H10.236a.524.524,0,0,0-.572.451L9.369,53.37H15.7l-.282-1.325Zm1.332,2.763a.707.707,0,0,0-.628-.7l-.2-.02H9.206v0l-.267.017a.683.683,0,0,0-.633.7V56.9h8.445v-2.09Zm-1.4,1.392a.7.7,0,1,1,.7-.7.707.707,0,0,1-.7.7Zm0-1.057a.352.352,0,1,0,.353.353.352.352,0,0,0-.353-.353ZM9.707,56.2a.7.7,0,1,1,.705-.7.707.707,0,0,1-.705.7Zm0-1.057a.352.352,0,1,0,.353.353.354.354,0,0,0-.353-.353ZM6.283,50.792v1.824H4.454V50.792ZM7.762,44.22l-6.57,6.585H2.918v6.783H6.762v.969H2.926a.969.969,0,0,1-.97-.969V51.775H.988a.969.969,0,0,1-.969-.97H0a.43.43,0,0,1,.047-.139.944.944,0,0,1,.725-.787l6.749-6.736a.292.292,0,0,1,.468,0l6.742,6.729a1,1,0,0,1,.49.247H13.649l-5.886-5.9Zm-5.81,8.522h0l0,0v0Z" transform="translate(224 7591.973)"/>
</svg>
